<svg xmlns="http://www.w3.org/2000/svg" viewBox="0 0 32 32" fill="none">
  <defs>
    <linearGradient id="gLeaf" x1="0" y1="5" x2="0" y2="21">
      <stop offset="0%" stop-color="#32BA67"/>
      <stop offset="100%" stop-color="#1E9B4A"/>
    </linearGradient>
  </defs>
  <!-- Badge - solid background -->
  <rect width="32" height="32" rx="8" fill="#03583A"/>
  <!-- Circuit -->
  <g stroke="#039E96" stroke-width="1.5" stroke-linecap="round" stroke-linejoin="round" fill="none">
    <!-- Main horizontal -->
    <path d="M6 16 H26"/>
    <!-- Main vertical -->
    <path d="M16 11 V22"/>
    <!-- Branches -->
    <path d="M16 17 L8 22"/>
    <path d="M16 17 L24 22"/>
    <path d="M16 17 V24"/>
    <!-- Rings -->
    <circle cx="6" cy="16" r="2" stroke-width="1"/>
    <circle cx="26" cy="16" r="2" stroke-width="1"/>
    <circle cx="8" cy="22" r="2" stroke-width="1"/>
    <circle cx="24" cy="22" r="2" stroke-width="1"/>
    <circle cx="16" cy="24" r="2" stroke-width="1"/>
  </g>
  <!-- Leaf -->
  <path d="M16 4 C19.5 6.5 22 10 21.5 14 C21 17.5 19 19 16 20 C13 19 11 17.5 10.5 14 C10 10 12.5 6.5 16 4 Z" fill="url(#gLeaf)"/>
  <!-- Leaf inner slit -->
  <rect x="15" y="8" width="2" height="11" rx="1" fill="#064A33" opacity="0.9"/>
</svg>