<svg xmlns="http://www.w3.org/2000/svg" width="32" height="32" viewBox="0 0 32 32" fill="none">
  <defs>
    <!-- Badge background - scaled from logo-badge.svg -->
    <radialGradient id="favBadge" cx="30%" cy="25%" r="85%">
      <stop offset="0%" stop-color="#0B6A43"/>
      <stop offset="70%" stop-color="#03583A"/>
      <stop offset="100%" stop-color="#013A29"/>
    </radialGradient>
    <!-- Leaf fill -->
    <linearGradient id="favLeaf" x1="16" y1="5" x2="16" y2="21">
      <stop offset="0%" stop-color="#32BA67"/>
      <stop offset="100%" stop-color="#1E9B4A"/>
    </linearGradient>
  </defs>
  
  <!-- Badge background -->
  <circle cx="16" cy="16" r="15" fill="url(#favBadge)"/>
  
  <!-- Circuit - scaled proportionally -->
  <g stroke="#039E96" stroke-width="1.75" stroke-linecap="round" stroke-linejoin="round" fill="none">
    <!-- Main horizontal -->
    <path d="M7.5 16.5 H24.5"/>
    <!-- Main vertical (trunk) -->
    <path d="M16 11 V24"/>
    <!-- Branches down -->
    <path d="M16 17.5 L10.25 22"/>
    <path d="M16 17.5 L21.75 22"/>
    <path d="M16 17.5 V25.75"/>
    <!-- Rings -->
    <circle cx="7.5" cy="16.5" r="2" stroke-width="1.25"/>
    <circle cx="24.5" cy="16.5" r="2" stroke-width="1.25"/>
    <circle cx="10.25" cy="22" r="2" stroke-width="1.25"/>
    <circle cx="21.75" cy="22" r="2" stroke-width="1.25"/>
    <circle cx="16" cy="25.75" r="2" stroke-width="1.25"/>
  </g>
  
  <!-- Leaf - scaled proportionally -->
  <path d="M16 4.25 C19.5 6.75 22.25 10.5 22 14 C21.75 17.5 19 19.75 16 21 C13 19.75 10.25 17.5 10 14 C9.75 10.5 12.5 6.75 16 4.25 Z" fill="url(#favLeaf)"/>
  
  <!-- Leaf inner slit -->
  <rect x="15" y="7.75" width="2" height="11.5" rx="1" fill="#064A33" opacity="0.9"/>
</svg>