<svg width="500" height="500" viewBox="0 0 500 500" xmlns="http://www.w3.org/2000/svg">
  <rect width="500" height="500" fill="#0d141b"/>
  <circle cx="250" cy="250" r="235" fill="#185337"/>
  <path d="M250,55 C320,130 320,220 250,285 C180,220 180,130 250,55 Z" fill="#54aa6b"/>
  <g stroke="#3c9d92" stroke-width="14" stroke-linecap="round" fill="none">
    <line x1="250" y1="120" x2="250" y2="330" />
    <line x1="250" y1="330" x2="100" y2="310" />
    <line x1="250" y1="330" x2="165" y2="420" />
    <line x1="250" y1="330" x2="250" y2="450" />
    <line x1="250" y1="330" x2="335" y2="420" />
    <line x1="250" y1="330" x2="400" y2="310" />
  </g>
  <g fill="#185337" stroke="#3c9d92" stroke-width="12">
    <circle cx="100" cy="310" r="18" />
    <circle cx="165" cy="420" r="18" />
    <circle cx="250" cy="450" r="18" />
    <circle cx="335" cy="420" r="18" />
    <circle cx="400" cy="310" r="18" />
  </g>
</svg>